<?xml version="1.0" standalone="no"?>
<!DOCTYPE svg PUBLIC "-//W3C//DTD SVG 20010904//EN"
 "http://www.w3.org/TR/2001/REC-SVG-20010904/DTD/svg10.dtd">
<svg version="1.0" xmlns="http://www.w3.org/2000/svg"
 width="512.000000pt" height="512.000000pt" viewBox="0 0 512.000000 512.000000"
 preserveAspectRatio="xMidYMid meet">

<g transform="translate(0.000000,512.000000) scale(0.100000,-0.100000)"
fill="#000000" stroke="none">
<path d="M370 4071 c-71 -15 -139 -69 -175 -140 -16 -33 -17 -114 -16 -1250
l2 -1216 23 -51 c26 -55 73 -98 133 -120 31 -11 250 -13 1170 -14 l1132 0 3
253 c3 246 4 253 26 285 51 71 -11 67 965 70 577 1 891 -1 916 -8 48 -13 86
-42 109 -83 14 -27 17 -68 20 -276 l4 -243 46 7 c26 4 63 15 82 25 50 25 107
91 119 137 7 24 11 469 12 1244 1 1126 0 1207 -16 1240 -41 81 -113 132 -204
144 l-54 7 6 -248 6 -249 39 -125 c22 -69 39 -126 38 -128 -2 -1 -52 21 -112
50 l-109 53 -897 5 c-890 5 -897 5 -925 26 -15 11 -38 36 -50 54 -22 32 -23
40 -23 296 l0 264 -1117 -1 c-615 -1 -1134 -4 -1153 -8z m252 -178 c24 -21 23
-55 -2 -78 -46 -41 -116 29 -75 75 22 24 52 26 77 3z m223 -3 c37 -41 -14
-107 -64 -81 -47 26 -30 101 24 101 12 0 30 -9 40 -20z m840 -485 l0 -70 -387
-3 -388 -2 0 68 c0 38 3 72 7 75 4 4 178 6 387 5 l381 -3 0 -70z m-1023 36
c158 -100 88 -351 -99 -351 -170 0 -260 190 -149 314 43 49 81 66 147 66 44 0
64 -6 101 -29z m3438 -373 c18 -13 43 -36 54 -51 20 -27 21 -42 24 -358 3
-322 2 -331 -19 -368 -12 -21 -38 -48 -59 -60 -38 -21 -40 -21 -913 -21 l-875
0 -105 -49 c-162 -76 -151 -82 -106 65 l39 126 0 287 c0 157 5 304 10 325 11
50 37 84 80 107 33 18 78 19 936 19 l901 0 33 -22z m-2415 -323 l0 -70 -387
-3 -388 -2 0 75 0 75 388 -2 387 -3 0 -70z m-1045 -607 c117 -60 148 -205 64
-298 -113 -125 -302 -71 -338 97 -22 100 84 222 194 223 20 0 56 -10 80 -22z
m1050 -48 l0 -70 -390 0 -390 0 0 70 0 70 390 0 390 0 0 -70z"/>
<path d="M2418 2808 c-14 -38 -18 -38 712 -38 557 0 709 3 712 13 14 37 18 37
-712 37 -557 0 -709 -3 -712 -12z"/>
<path d="M2550 2573 c-68 -2 -129 -8 -134 -13 -6 -6 -4 -16 5 -26 12 -15 45
-16 389 -9 206 4 379 11 384 15 5 5 6 16 3 24 -6 14 -38 16 -264 14 -142 -1
-314 -4 -383 -5z"/>
<path d="M2942 4028 l3 -23 701 -3 c606 -2 703 0 714 12 6 9 9 20 5 26 -4 7
-234 10 -716 10 l-710 0 3 -22z"/>
<path d="M2947 3803 c-4 -3 -7 -15 -7 -25 0 -17 17 -18 388 -16 l387 3 3 23 3
22 -384 0 c-211 0 -387 -3 -390 -7z"/>
<path d="M2923 1583 c-7 -2 -13 -13 -13 -24 0 -19 17 -19 709 -19 482 0 712 3
716 10 4 6 1 17 -5 25 -11 13 -110 15 -704 14 -380 0 -697 -3 -703 -6z"/>
<path d="M2914 1325 c-3 -8 -3 -19 1 -25 7 -11 730 -15 759 -4 9 3 16 15 16
25 0 18 -14 19 -385 19 -328 0 -386 -2 -391 -15z"/>
</g>
</svg>
