<?xml version="1.0" standalone="no"?>
<!DOCTYPE svg PUBLIC "-//W3C//DTD SVG 20010904//EN"
 "http://www.w3.org/TR/2001/REC-SVG-20010904/DTD/svg10.dtd">
<svg version="1.0" xmlns="http://www.w3.org/2000/svg"
 width="512.000000pt" height="512.000000pt" viewBox="0 0 512.000000 512.000000"
 preserveAspectRatio="xMidYMid meet">

<g transform="translate(0.000000,512.000000) scale(0.100000,-0.100000)"
fill="#000000" stroke="none">
<path d="M270 5106 c-146 -40 -240 -145 -265 -293 l-7 -43 1116 0 c1211 0
1155 2 1214 -53 44 -41 52 -70 52 -184 1 -172 23 -234 100 -273 38 -20 64 -20
1340 -20 l1301 0 -3 303 c-3 269 -5 307 -22 347 -39 93 -118 172 -207 207 -42
17 -169 18 -2309 20 -1780 1 -2275 -1 -2310 -11z m4009 -351 c79 -40 46 -165
-44 -165 -36 0 -85 50 -85 87 0 34 24 71 54 83 31 13 44 12 75 -5z m-340 -12
c59 -48 22 -147 -54 -147 -74 0 -112 88 -60 139 29 30 83 33 114 8z"/>
<path d="M1794 4476 c-35 -29 -38 -82 -8 -123 l20 -28 -23 -34 c-37 -55 -24
-109 33 -136 35 -16 72 -9 106 22 15 14 20 13 47 -6 32 -23 87 -27 112 -8 44
33 50 92 15 134 l-24 28 24 28 c35 41 29 101 -15 134 -25 20 -85 15 -115 -8
l-26 -20 -26 20 c-36 28 -86 27 -120 -3z"/>
<path d="M1989 3165 c-38 -21 -55 -67 -39 -105 26 -64 -45 -61 1239 -58 l1169
3 26 24 c34 32 35 80 2 118 l-24 28 -1174 2 c-1000 2 -1177 0 -1199 -12z"/>
<path d="M1970 2795 c-34 -37 -33 -90 4 -121 l27 -24 650 0 650 0 24 25 c34
33 34 87 0 120 l-24 25 -654 0 -654 0 -23 -25z"/>
<path d="M3569 2807 c-46 -35 -47 -101 -2 -137 23 -18 41 -20 180 -20 155 0
184 5 210 39 21 27 15 79 -12 106 -24 25 -27 25 -192 25 -116 -1 -173 -4 -184
-13z"/>
<path d="M741 1564 c-39 -33 -42 -80 -7 -121 l24 -28 1159 -3 c820 -2 1169 0
1196 8 51 15 76 63 57 110 -26 63 45 60 -1234 60 l-1164 0 -31 -26z"/>
<path d="M735 1205 c-27 -27 -33 -79 -12 -106 29 -39 38 -39 695 -39 625 0
640 0 665 20 14 11 28 33 32 49 7 33 -15 85 -40 95 -9 3 -309 6 -666 6 l-650
0 -24 -25z"/>
<path d="M2322 1207 c-13 -14 -22 -36 -22 -54 0 -81 27 -93 214 -93 80 0 156
4 170 10 51 19 64 94 25 136 -22 23 -26 24 -194 24 -166 0 -172 -1 -193 -23z"/>
</g>
</svg>
